<svg xmlns="http://www.w3.org/2000/svg" xmlns:xlink="http://www.w3.org/1999/xlink" width="224" zoomAndPan="magnify" viewBox="0 0 168 106.499997" height="142" preserveAspectRatio="xMidYMid meet" version="1.0"><defs><g/><clipPath id="a4b2399efc"><path d="M 0.390625 0 L 166.859375 0 L 166.859375 105.964844 L 0.390625 105.964844 Z M 0.390625 0 " clip-rule="nonzero"/></clipPath></defs><path fill="#004aad" d="M 39.039062 88.1875 C 27.671875 88.1875 18.148438 79.195312 17.933594 67.828125 C 17.714844 56.195312 27.113281 46.667969 38.691406 46.667969 C 39.027344 46.667969 39.457031 46.699219 39.910156 46.734375 L 39.933594 46.734375 C 46.023438 47.195312 51.628906 43.394531 53.457031 37.566406 C 56.882812 25.742188 67.871094 17.484375 80.175781 17.484375 C 89.074219 17.484375 97.234375 21.621094 102.5625 28.84375 C 105.578125 32.925781 110.722656 34.835938 115.671875 33.710938 C 117.777344 33.238281 119.847656 32.992188 121.8125 32.992188 C 137.167969 32.992188 149.640625 45.601562 149.402344 61.015625 C 149.171875 76.15625 136.539062 88.183594 121.394531 88.183594 L 39.039062 88.183594 Z M 39.039062 88.1875 " fill-opacity="1" fill-rule="nonzero"/><g clip-path="url(#a4b2399efc)"><path fill="#5271ff" d="M 121.8125 105.714844 L 38.691406 105.714844 C 17.578125 105.714844 0.40625 88.539062 0.40625 67.429688 C 0.40625 46.613281 17.105469 29.621094 37.8125 29.152344 C 44.457031 11.792969 61.371094 -0.0390625 80.171875 -0.0390625 C 93.464844 -0.0390625 106.179688 5.925781 114.765625 16.050781 C 117.136719 15.667969 119.492188 15.476562 121.804688 15.476562 C 146.6875 15.476562 166.925781 35.71875 166.925781 60.601562 C 166.925781 85.472656 146.6875 105.714844 121.8125 105.714844 Z M 38.691406 38.621094 C 22.660156 38.621094 9.644531 51.785156 9.890625 67.871094 C 10.128906 83.675781 23.320312 96.230469 39.128906 96.230469 L 121.355469 96.230469 C 140.976562 96.230469 157.253906 80.566406 157.445312 60.941406 C 157.636719 41.128906 141.574219 24.953125 121.8125 24.953125 C 119.242188 24.953125 116.578125 25.261719 113.890625 25.867188 C 112.054688 26.285156 110.148438 25.574219 109.03125 24.0625 C 102.167969 14.773438 91.652344 9.4375 80.175781 9.4375 C 64.316406 9.4375 50.152344 20.082031 45.738281 35.324219 C 45.117188 37.46875 43.078125 38.886719 40.847656 38.730469 C 39.929688 38.675781 39.316406 38.621094 38.691406 38.621094 Z M 38.691406 38.621094 " fill-opacity="1" fill-rule="nonzero"/></g><g fill="#ffffff" fill-opacity="1"><g transform="translate(23.424975, 73.249126)"><g><path d="M 12.703125 -15.28125 C 13.234375 -15.28125 13.59375 -15.21875 13.78125 -15.09375 C 13.976562 -14.976562 14.078125 -14.773438 14.078125 -14.484375 L 14.078125 -9.625 C 14.078125 -9.34375 13.945312 -9.140625 13.6875 -9.015625 C 13.425781 -8.890625 13 -8.828125 12.40625 -8.828125 C 12.007812 -8.828125 11.703125 -8.851562 11.484375 -8.90625 C 11.273438 -8.96875 11.128906 -9.050781 11.046875 -9.15625 C 10.960938 -9.269531 10.921875 -9.425781 10.921875 -9.625 C 10.921875 -10.46875 10.6875 -11.140625 10.21875 -11.640625 C 9.757812 -12.148438 9.109375 -12.40625 8.265625 -12.40625 C 7.085938 -12.40625 6.195312 -11.984375 5.59375 -11.140625 C 4.988281 -10.296875 4.6875 -9.082031 4.6875 -7.5 C 4.6875 -5.9375 5.007812 -4.726562 5.65625 -3.875 C 6.300781 -3.019531 7.210938 -2.59375 8.390625 -2.59375 C 9.117188 -2.59375 9.820312 -2.691406 10.5 -2.890625 C 11.175781 -3.085938 11.910156 -3.390625 12.703125 -3.796875 C 12.835938 -3.859375 12.960938 -3.890625 13.078125 -3.890625 C 13.472656 -3.890625 13.800781 -3.539062 14.0625 -2.84375 C 14.175781 -2.519531 14.234375 -2.234375 14.234375 -1.984375 C 14.234375 -1.554688 14.039062 -1.25 13.65625 -1.0625 C 11.851562 -0.164062 10.054688 0.28125 8.265625 0.28125 C 6.878906 0.28125 5.660156 -0.0351562 4.609375 -0.671875 C 3.554688 -1.304688 2.738281 -2.207031 2.15625 -3.375 C 1.582031 -4.550781 1.296875 -5.925781 1.296875 -7.5 C 1.296875 -9.070312 1.578125 -10.441406 2.140625 -11.609375 C 2.710938 -12.785156 3.492188 -13.691406 4.484375 -14.328125 C 5.484375 -14.960938 6.617188 -15.28125 7.890625 -15.28125 C 9.359375 -15.28125 10.453125 -14.75 11.171875 -13.6875 L 11.171875 -14.484375 C 11.171875 -14.765625 11.289062 -14.96875 11.53125 -15.09375 C 11.78125 -15.21875 12.171875 -15.28125 12.703125 -15.28125 Z M 12.703125 -15.28125 "/></g></g></g><g fill="#ffffff" fill-opacity="1"><g transform="translate(38.419739, 73.249126)"><g><path d="M 8.59375 -16.578125 C 8.875 -16.578125 9.078125 -16.515625 9.203125 -16.390625 C 9.328125 -16.265625 9.390625 -16.0625 9.390625 -15.78125 L 9.390625 -2.59375 L 12.9375 -2.59375 C 13.132812 -2.59375 13.285156 -2.554688 13.390625 -2.484375 C 13.503906 -2.410156 13.585938 -2.28125 13.640625 -2.09375 C 13.703125 -1.90625 13.734375 -1.632812 13.734375 -1.28125 C 13.734375 -0.9375 13.703125 -0.671875 13.640625 -0.484375 C 13.585938 -0.296875 13.503906 -0.164062 13.390625 -0.09375 C 13.285156 -0.03125 13.132812 0 12.9375 0 L 2.78125 0 C 2.570312 0 2.410156 -0.03125 2.296875 -0.09375 C 2.191406 -0.164062 2.113281 -0.296875 2.0625 -0.484375 C 2.007812 -0.671875 1.984375 -0.9375 1.984375 -1.28125 C 1.984375 -1.632812 2.007812 -1.90625 2.0625 -2.09375 C 2.113281 -2.28125 2.191406 -2.410156 2.296875 -2.484375 C 2.410156 -2.554688 2.570312 -2.59375 2.78125 -2.59375 L 6.234375 -2.59375 L 6.234375 -13.984375 L 3.28125 -13.984375 C 3.082031 -13.984375 2.925781 -14.015625 2.8125 -14.078125 C 2.707031 -14.148438 2.625 -14.28125 2.5625 -14.46875 C 2.507812 -14.65625 2.484375 -14.925781 2.484375 -15.28125 C 2.484375 -15.632812 2.507812 -15.898438 2.5625 -16.078125 C 2.625 -16.265625 2.707031 -16.394531 2.8125 -16.46875 C 2.925781 -16.539062 3.082031 -16.578125 3.28125 -16.578125 Z M 8.59375 -16.578125 "/></g></g></g><g fill="#ffffff" fill-opacity="1"><g transform="translate(53.414503, 73.249126)"><g><path d="M 7.75 -11.953125 C 9.03125 -11.953125 10.148438 -11.691406 11.109375 -11.171875 C 12.078125 -10.648438 12.816406 -9.925781 13.328125 -9 C 13.847656 -8.070312 14.109375 -7.019531 14.109375 -5.84375 C 14.109375 -4.65625 13.847656 -3.597656 13.328125 -2.671875 C 12.816406 -1.742188 12.078125 -1.019531 11.109375 -0.5 C 10.148438 0.0195312 9.03125 0.28125 7.75 0.28125 C 6.476562 0.28125 5.359375 0.0195312 4.390625 -0.5 C 3.429688 -1.019531 2.691406 -1.742188 2.171875 -2.671875 C 1.660156 -3.597656 1.40625 -4.65625 1.40625 -5.84375 C 1.40625 -7.019531 1.660156 -8.070312 2.171875 -9 C 2.691406 -9.925781 3.429688 -10.648438 4.390625 -11.171875 C 5.359375 -11.691406 6.476562 -11.953125 7.75 -11.953125 Z M 7.75 -9.078125 C 7.144531 -9.078125 6.617188 -8.941406 6.171875 -8.671875 C 5.734375 -8.410156 5.390625 -8.035156 5.140625 -7.546875 C 4.898438 -7.066406 4.78125 -6.5 4.78125 -5.84375 C 4.78125 -5.1875 4.898438 -4.613281 5.140625 -4.125 C 5.390625 -3.632812 5.734375 -3.253906 6.171875 -2.984375 C 6.617188 -2.722656 7.144531 -2.59375 7.75 -2.59375 C 8.363281 -2.59375 8.890625 -2.722656 9.328125 -2.984375 C 9.773438 -3.253906 10.117188 -3.632812 10.359375 -4.125 C 10.597656 -4.613281 10.71875 -5.1875 10.71875 -5.84375 C 10.71875 -6.5 10.597656 -7.066406 10.359375 -7.546875 C 10.117188 -8.035156 9.773438 -8.410156 9.328125 -8.671875 C 8.890625 -8.941406 8.363281 -9.078125 7.75 -9.078125 Z M 7.75 -9.078125 "/></g></g></g><g fill="#ffffff" fill-opacity="1"><g transform="translate(68.409267, 73.249126)"><g><path d="M 12.25 -11.671875 C 12.53125 -11.671875 12.726562 -11.609375 12.84375 -11.484375 C 12.96875 -11.367188 13.03125 -11.164062 13.03125 -10.875 L 13.03125 -2.59375 L 14.015625 -2.59375 C 14.210938 -2.59375 14.363281 -2.554688 14.46875 -2.484375 C 14.582031 -2.421875 14.664062 -2.296875 14.71875 -2.109375 C 14.78125 -1.921875 14.8125 -1.648438 14.8125 -1.296875 C 14.8125 -0.941406 14.78125 -0.671875 14.71875 -0.484375 C 14.664062 -0.304688 14.582031 -0.179688 14.46875 -0.109375 C 14.363281 -0.0351562 14.210938 0 14.015625 0 L 11.1875 0 C 10.894531 0 10.6875 -0.0546875 10.5625 -0.171875 C 10.445312 -0.296875 10.390625 -0.503906 10.390625 -0.796875 L 10.390625 -2.625 C 9.273438 -0.6875 7.882812 0.28125 6.21875 0.28125 C 5.445312 0.28125 4.769531 0.113281 4.1875 -0.21875 C 3.613281 -0.5625 3.171875 -1.039062 2.859375 -1.65625 C 2.554688 -2.28125 2.40625 -3.007812 2.40625 -3.84375 L 2.40625 -9.078125 L 1.421875 -9.078125 C 1.222656 -9.078125 1.066406 -9.113281 0.953125 -9.1875 C 0.847656 -9.257812 0.765625 -9.390625 0.703125 -9.578125 C 0.648438 -9.765625 0.625 -10.035156 0.625 -10.390625 C 0.625 -10.742188 0.648438 -11.007812 0.703125 -11.1875 C 0.765625 -11.375 0.847656 -11.5 0.953125 -11.5625 C 1.066406 -11.632812 1.222656 -11.671875 1.421875 -11.671875 L 4.765625 -11.671875 C 5.046875 -11.671875 5.25 -11.609375 5.375 -11.484375 C 5.5 -11.367188 5.5625 -11.164062 5.5625 -10.875 L 5.5625 -4.59375 C 5.5625 -3.925781 5.671875 -3.425781 5.890625 -3.09375 C 6.117188 -2.757812 6.5 -2.59375 7.03125 -2.59375 C 7.519531 -2.59375 7.984375 -2.796875 8.421875 -3.203125 C 8.859375 -3.609375 9.207031 -4.148438 9.46875 -4.828125 C 9.738281 -5.515625 9.875 -6.25 9.875 -7.03125 L 9.875 -9.078125 L 8.53125 -9.078125 C 8.320312 -9.078125 8.160156 -9.113281 8.046875 -9.1875 C 7.941406 -9.257812 7.863281 -9.390625 7.8125 -9.578125 C 7.757812 -9.765625 7.734375 -10.035156 7.734375 -10.390625 C 7.734375 -10.742188 7.757812 -11.007812 7.8125 -11.1875 C 7.863281 -11.375 7.941406 -11.5 8.046875 -11.5625 C 8.160156 -11.632812 8.320312 -11.671875 8.53125 -11.671875 Z M 12.25 -11.671875 "/></g></g></g><g fill="#ffffff" fill-opacity="1"><g transform="translate(83.404031, 73.249126)"><g><path d="M 12.359375 -16.578125 C 12.640625 -16.578125 12.84375 -16.515625 12.96875 -16.390625 C 13.09375 -16.265625 13.15625 -16.0625 13.15625 -15.78125 L 13.15625 -2.59375 L 14.25 -2.59375 C 14.457031 -2.59375 14.613281 -2.554688 14.71875 -2.484375 C 14.832031 -2.421875 14.914062 -2.296875 14.96875 -2.109375 C 15.019531 -1.921875 15.046875 -1.648438 15.046875 -1.296875 C 15.046875 -0.941406 15.019531 -0.671875 14.96875 -0.484375 C 14.914062 -0.304688 14.832031 -0.179688 14.71875 -0.109375 C 14.613281 -0.0351562 14.457031 0 14.25 0 L 11.296875 0 C 11.003906 0 10.796875 -0.0546875 10.671875 -0.171875 C 10.554688 -0.296875 10.5 -0.503906 10.5 -0.796875 L 10.5 -1.859375 C 10.0625 -1.179688 9.515625 -0.65625 8.859375 -0.28125 C 8.203125 0.09375 7.472656 0.28125 6.671875 0.28125 C 5.566406 0.28125 4.601562 0.0078125 3.78125 -0.53125 C 2.957031 -1.070312 2.320312 -1.804688 1.875 -2.734375 C 1.4375 -3.660156 1.21875 -4.695312 1.21875 -5.84375 C 1.21875 -6.988281 1.4375 -8.019531 1.875 -8.9375 C 2.320312 -9.863281 2.957031 -10.597656 3.78125 -11.140625 C 4.601562 -11.679688 5.566406 -11.953125 6.671875 -11.953125 C 7.328125 -11.953125 7.9375 -11.820312 8.5 -11.5625 C 9.0625 -11.3125 9.5625 -10.945312 10 -10.46875 L 10 -13.984375 L 8.140625 -13.984375 C 7.929688 -13.984375 7.769531 -14.015625 7.65625 -14.078125 C 7.550781 -14.148438 7.472656 -14.28125 7.421875 -14.46875 C 7.367188 -14.65625 7.34375 -14.925781 7.34375 -15.28125 C 7.34375 -15.632812 7.367188 -15.898438 7.421875 -16.078125 C 7.472656 -16.265625 7.550781 -16.394531 7.65625 -16.46875 C 7.769531 -16.539062 7.929688 -16.578125 8.140625 -16.578125 Z M 7.171875 -9.078125 C 6.648438 -9.078125 6.195312 -8.941406 5.8125 -8.671875 C 5.425781 -8.410156 5.128906 -8.035156 4.921875 -7.546875 C 4.710938 -7.066406 4.609375 -6.5 4.609375 -5.84375 C 4.609375 -5.1875 4.710938 -4.613281 4.921875 -4.125 C 5.128906 -3.632812 5.425781 -3.253906 5.8125 -2.984375 C 6.195312 -2.722656 6.648438 -2.59375 7.171875 -2.59375 C 7.710938 -2.59375 8.203125 -2.71875 8.640625 -2.96875 C 9.078125 -3.21875 9.425781 -3.585938 9.6875 -4.078125 C 9.945312 -4.578125 10.078125 -5.164062 10.078125 -5.84375 C 10.078125 -6.507812 9.945312 -7.085938 9.6875 -7.578125 C 9.425781 -8.078125 9.078125 -8.453125 8.640625 -8.703125 C 8.203125 -8.953125 7.710938 -9.078125 7.171875 -9.078125 Z M 7.171875 -9.078125 "/></g></g></g><g fill="#ffffff" fill-opacity="1"><g transform="translate(98.398795, 73.249126)"><g><path d="M 7.9375 -11.953125 C 9.21875 -11.953125 10.304688 -11.675781 11.203125 -11.125 C 12.109375 -10.570312 12.789062 -9.804688 13.25 -8.828125 C 13.707031 -7.847656 13.9375 -6.722656 13.9375 -5.453125 C 13.9375 -5.171875 13.875 -4.96875 13.75 -4.84375 C 13.625 -4.726562 13.421875 -4.671875 13.140625 -4.671875 L 5.03125 -4.671875 C 5.1875 -3.992188 5.523438 -3.476562 6.046875 -3.125 C 6.578125 -2.769531 7.25 -2.59375 8.0625 -2.59375 C 9.363281 -2.59375 10.78125 -2.820312 12.3125 -3.28125 C 12.40625 -3.3125 12.503906 -3.328125 12.609375 -3.328125 C 12.796875 -3.328125 12.957031 -3.242188 13.09375 -3.078125 C 13.226562 -2.910156 13.347656 -2.625 13.453125 -2.21875 C 13.535156 -1.90625 13.578125 -1.640625 13.578125 -1.421875 C 13.578125 -1.203125 13.53125 -1.03125 13.4375 -0.90625 C 13.34375 -0.789062 13.1875 -0.695312 12.96875 -0.625 C 12.125 -0.34375 11.265625 -0.125 10.390625 0.03125 C 9.515625 0.195312 8.65625 0.28125 7.8125 0.28125 C 6.53125 0.28125 5.425781 0.0195312 4.5 -0.5 C 3.570312 -1.019531 2.863281 -1.742188 2.375 -2.671875 C 1.894531 -3.597656 1.65625 -4.65625 1.65625 -5.84375 C 1.65625 -7.019531 1.90625 -8.070312 2.40625 -9 C 2.914062 -9.925781 3.644531 -10.648438 4.59375 -11.171875 C 5.550781 -11.691406 6.664062 -11.953125 7.9375 -11.953125 Z M 7.9375 -9.078125 C 6.394531 -9.078125 5.441406 -8.429688 5.078125 -7.140625 L 10.640625 -7.140625 C 10.492188 -7.753906 10.1875 -8.226562 9.71875 -8.5625 C 9.25 -8.90625 8.65625 -9.078125 7.9375 -9.078125 Z M 7.9375 -9.078125 "/></g></g></g><g fill="#ffffff" fill-opacity="1"><g transform="translate(113.393559, 73.249126)"><g><path d="M 13.703125 -11.671875 C 13.910156 -11.671875 14.066406 -11.632812 14.171875 -11.5625 C 14.285156 -11.488281 14.367188 -11.359375 14.421875 -11.171875 C 14.472656 -10.992188 14.5 -10.726562 14.5 -10.375 C 14.5 -10.019531 14.472656 -9.75 14.421875 -9.5625 C 14.367188 -9.375 14.285156 -9.242188 14.171875 -9.171875 C 14.066406 -9.109375 13.910156 -9.078125 13.703125 -9.078125 L 12.96875 -9.078125 L 9.921875 -5.90625 L 13.1875 -2.59375 L 13.828125 -2.59375 C 14.035156 -2.59375 14.191406 -2.554688 14.296875 -2.484375 C 14.410156 -2.410156 14.492188 -2.28125 14.546875 -2.09375 C 14.597656 -1.90625 14.625 -1.632812 14.625 -1.28125 C 14.625 -0.9375 14.597656 -0.671875 14.546875 -0.484375 C 14.492188 -0.296875 14.410156 -0.164062 14.296875 -0.09375 C 14.191406 -0.03125 14.035156 0 13.828125 0 L 8.984375 0 C 8.785156 0 8.628906 -0.03125 8.515625 -0.09375 C 8.398438 -0.164062 8.316406 -0.296875 8.265625 -0.484375 C 8.210938 -0.671875 8.1875 -0.9375 8.1875 -1.28125 C 8.1875 -1.632812 8.210938 -1.90625 8.265625 -2.09375 C 8.316406 -2.28125 8.398438 -2.410156 8.515625 -2.484375 C 8.628906 -2.554688 8.785156 -2.59375 8.984375 -2.59375 L 9.15625 -2.59375 L 7.5 -4.28125 L 5.9375 -2.59375 L 6.15625 -2.59375 C 6.351562 -2.59375 6.503906 -2.554688 6.609375 -2.484375 C 6.722656 -2.410156 6.804688 -2.28125 6.859375 -2.09375 C 6.921875 -1.90625 6.953125 -1.632812 6.953125 -1.28125 C 6.953125 -0.9375 6.921875 -0.671875 6.859375 -0.484375 C 6.804688 -0.296875 6.722656 -0.164062 6.609375 -0.09375 C 6.503906 -0.03125 6.351562 0 6.15625 0 L 1.6875 0 C 1.476562 0 1.316406 -0.03125 1.203125 -0.09375 C 1.097656 -0.164062 1.019531 -0.296875 0.96875 -0.484375 C 0.914062 -0.671875 0.890625 -0.9375 0.890625 -1.28125 C 0.890625 -1.632812 0.914062 -1.90625 0.96875 -2.09375 C 1.019531 -2.28125 1.097656 -2.410156 1.203125 -2.484375 C 1.316406 -2.554688 1.476562 -2.59375 1.6875 -2.59375 L 2.359375 -2.59375 L 5.578125 -5.921875 L 2.46875 -9.078125 L 1.8125 -9.078125 C 1.601562 -9.078125 1.441406 -9.109375 1.328125 -9.171875 C 1.222656 -9.242188 1.144531 -9.375 1.09375 -9.5625 C 1.039062 -9.75 1.015625 -10.019531 1.015625 -10.375 C 1.015625 -10.726562 1.039062 -10.992188 1.09375 -11.171875 C 1.144531 -11.359375 1.222656 -11.488281 1.328125 -11.5625 C 1.441406 -11.632812 1.601562 -11.671875 1.8125 -11.671875 L 6.53125 -11.671875 C 6.726562 -11.671875 6.878906 -11.632812 6.984375 -11.5625 C 7.097656 -11.488281 7.179688 -11.359375 7.234375 -11.171875 C 7.296875 -10.992188 7.328125 -10.726562 7.328125 -10.375 C 7.328125 -10.019531 7.296875 -9.75 7.234375 -9.5625 C 7.179688 -9.375 7.097656 -9.242188 6.984375 -9.171875 C 6.878906 -9.109375 6.726562 -9.078125 6.53125 -9.078125 L 6.375 -9.078125 L 7.984375 -7.421875 L 9.515625 -9.078125 L 9.234375 -9.078125 C 9.035156 -9.078125 8.878906 -9.109375 8.765625 -9.171875 C 8.660156 -9.242188 8.578125 -9.375 8.515625 -9.5625 C 8.460938 -9.75 8.4375 -10.019531 8.4375 -10.375 C 8.4375 -10.726562 8.460938 -10.992188 8.515625 -11.171875 C 8.578125 -11.359375 8.660156 -11.488281 8.765625 -11.5625 C 8.878906 -11.632812 9.035156 -11.671875 9.234375 -11.671875 Z M 13.703125 -11.671875 "/></g></g></g><g fill="#ffffff" fill-opacity="1"><g transform="translate(128.388323, 73.249126)"><g><path d="M 7.9375 -11.953125 C 9.21875 -11.953125 10.304688 -11.675781 11.203125 -11.125 C 12.109375 -10.570312 12.789062 -9.804688 13.25 -8.828125 C 13.707031 -7.847656 13.9375 -6.722656 13.9375 -5.453125 C 13.9375 -5.171875 13.875 -4.96875 13.75 -4.84375 C 13.625 -4.726562 13.421875 -4.671875 13.140625 -4.671875 L 5.03125 -4.671875 C 5.1875 -3.992188 5.523438 -3.476562 6.046875 -3.125 C 6.578125 -2.769531 7.25 -2.59375 8.0625 -2.59375 C 9.363281 -2.59375 10.78125 -2.820312 12.3125 -3.28125 C 12.40625 -3.3125 12.503906 -3.328125 12.609375 -3.328125 C 12.796875 -3.328125 12.957031 -3.242188 13.09375 -3.078125 C 13.226562 -2.910156 13.347656 -2.625 13.453125 -2.21875 C 13.535156 -1.90625 13.578125 -1.640625 13.578125 -1.421875 C 13.578125 -1.203125 13.53125 -1.03125 13.4375 -0.90625 C 13.34375 -0.789062 13.1875 -0.695312 12.96875 -0.625 C 12.125 -0.34375 11.265625 -0.125 10.390625 0.03125 C 9.515625 0.195312 8.65625 0.28125 7.8125 0.28125 C 6.53125 0.28125 5.425781 0.0195312 4.5 -0.5 C 3.570312 -1.019531 2.863281 -1.742188 2.375 -2.671875 C 1.894531 -3.597656 1.65625 -4.65625 1.65625 -5.84375 C 1.65625 -7.019531 1.90625 -8.070312 2.40625 -9 C 2.914062 -9.925781 3.644531 -10.648438 4.59375 -11.171875 C 5.550781 -11.691406 6.664062 -11.953125 7.9375 -11.953125 Z M 7.9375 -9.078125 C 6.394531 -9.078125 5.441406 -8.429688 5.078125 -7.140625 L 10.640625 -7.140625 C 10.492188 -7.753906 10.1875 -8.226562 9.71875 -8.5625 C 9.25 -8.90625 8.65625 -9.078125 7.9375 -9.078125 Z M 7.9375 -9.078125 "/></g></g></g></svg>