<?xml version="1.0" encoding="UTF-8"?>
<svg id="Layer_1" data-name="Layer 1" xmlns="http://www.w3.org/2000/svg" viewBox="0 0 224.5 220">
  <defs>
    <style>
      .cls-1 {
        fill: #fc8147;
        stroke-width: 0px;
      }
    </style>
  </defs>
  <path class="cls-1" d="m147.83,110c0,9.9-4.01,18.85-10.5,25.34-6.48,6.48-15.44,10.5-25.34,10.5s-18.85-4.01-25.34-10.5c-6.48-6.48-10.5-15.44-10.5-25.34s4.01-18.85,10.5-25.34c6.48-6.48,15.44-10.5,25.34-10.5s18.85,4.01,25.34,10.5c6.48,6.48,10.5,15.44,10.5,25.34Z"/>
  <path class="cls-1" d="m112,183.32c-19.58,0-38-7.63-51.84-21.48-13.85-13.85-21.47-32.26-21.47-51.84s7.63-38,21.47-51.85c13.85-13.85,32.26-21.47,51.84-21.47s38,7.63,51.84,21.47l-18.54,18.54c-8.9-8.9-20.72-13.8-33.31-13.8s-24.41,4.9-33.3,13.8c-8.9,8.9-13.8,20.72-13.8,33.3s4.9,24.41,13.8,33.3c8.9,8.9,20.72,13.8,33.3,13.8s24.41-4.9,33.3-13.79l18.54,18.54c-13.85,13.85-32.26,21.48-51.85,21.48Z"/>
  <path class="cls-1" d="m112,220.28c-29.46,0-57.15-11.47-77.98-32.3C13.19,167.15,1.72,139.46,1.72,110h27.71c0,22.05,8.59,42.79,24.18,58.38,15.59,15.59,36.33,24.18,58.38,24.18s42.79-8.59,58.38-24.18c15.59-15.59,24.18-36.33,24.18-58.38s-8.59-42.79-24.18-58.38c-15.6-15.59-36.33-24.18-58.38-24.18V-.28c29.46,0,57.15,11.47,77.98,32.3,20.83,20.83,32.3,48.52,32.3,77.98s-11.47,57.15-32.3,77.98c-20.83,20.83-48.52,32.3-77.98,32.3Z"/>
</svg>